<svg width="644" height="255" viewBox="0 0 644 255" fill="none" xmlns="http://www.w3.org/2000/svg">
<rect width="644" height="255" fill="white"/>
<path d="M67.6 65.25C75.725 65.25 81.8708 67.25 86.0375 71.25C90.2042 75.2083 92.2875 81.5833 92.2875 90.375V135H82.0375V91.0625C82.0375 85.3542 80.725 81.0833 78.1 78.25C75.5167 75.4167 71.5375 74 66.1625 74C58.5792 74 53.2458 76.1458 50.1625 80.4375C47.0792 84.7292 45.5375 90.9583 45.5375 99.125V135H35.1625V66.5H43.5375L45.1 76.375H45.6625C47.1208 73.9583 48.975 71.9375 51.225 70.3125C53.475 68.6458 55.9958 67.3958 58.7875 66.5625C61.5792 65.6875 64.5167 65.25 67.6 65.25ZM207.285 100.625C207.285 106.25 206.556 111.271 205.098 115.688C203.639 120.104 201.535 123.833 198.785 126.875C196.035 129.917 192.702 132.25 188.785 133.875C184.91 135.458 180.514 136.25 175.598 136.25C171.014 136.25 166.806 135.458 162.973 133.875C159.181 132.25 155.889 129.917 153.098 126.875C150.348 123.833 148.202 120.104 146.66 115.688C145.16 111.271 144.41 106.25 144.41 100.625C144.41 93.125 145.681 86.75 148.223 81.5C150.764 76.2083 154.389 72.1875 159.098 69.4375C163.848 66.6458 169.493 65.25 176.035 65.25C182.285 65.25 187.743 66.6458 192.41 69.4375C197.118 72.2292 200.764 76.2708 203.348 81.5625C205.973 86.8125 207.285 93.1667 207.285 100.625ZM155.16 100.625C155.16 106.125 155.889 110.896 157.348 114.938C158.806 118.979 161.056 122.104 164.098 124.312C167.139 126.521 171.056 127.625 175.848 127.625C180.598 127.625 184.493 126.521 187.535 124.312C190.618 122.104 192.889 118.979 194.348 114.938C195.806 110.896 196.535 106.125 196.535 100.625C196.535 95.1667 195.806 90.4583 194.348 86.5C192.889 82.5 190.639 79.4167 187.598 77.25C184.556 75.0833 180.618 74 175.785 74C168.66 74 163.431 76.3542 160.098 81.0625C156.806 85.7708 155.16 92.2917 155.16 100.625ZM281.908 127.75C283.616 127.75 285.366 127.604 287.158 127.312C288.949 127.021 290.408 126.667 291.533 126.25V134.312C290.324 134.854 288.637 135.312 286.47 135.688C284.345 136.062 282.262 136.25 280.22 136.25C276.595 136.25 273.303 135.625 270.345 134.375C267.387 133.083 265.012 130.917 263.22 127.875C261.47 124.833 260.595 120.625 260.595 115.25V74.625H250.845V69.5625L260.658 65.5L264.783 50.625H271.033V66.5H291.095V74.625H271.033V114.938C271.033 119.229 272.012 122.438 273.97 124.562C275.97 126.688 278.616 127.75 281.908 127.75ZM366.342 65.25C372.176 65.25 377.176 66.5417 381.342 69.125C385.509 71.7083 388.697 75.3333 390.905 80C393.113 84.625 394.217 90.0417 394.217 96.25V102.688H346.905C347.03 110.729 349.03 116.854 352.905 121.062C356.78 125.271 362.238 127.375 369.28 127.375C373.613 127.375 377.447 126.979 380.78 126.188C384.113 125.396 387.572 124.229 391.155 122.688V131.812C387.697 133.354 384.259 134.479 380.842 135.188C377.467 135.896 373.467 136.25 368.842 136.25C362.259 136.25 356.509 134.917 351.592 132.25C346.717 129.542 342.926 125.583 340.217 120.375C337.509 115.167 336.155 108.792 336.155 101.25C336.155 93.875 337.384 87.5 339.842 82.125C342.342 76.7083 345.842 72.5417 350.342 69.625C354.884 66.7083 360.217 65.25 366.342 65.25ZM366.217 73.75C360.676 73.75 356.259 75.5625 352.967 79.1875C349.676 82.8125 347.717 87.875 347.092 94.375H383.342C383.301 90.2917 382.655 86.7083 381.405 83.625C380.197 80.5 378.342 78.0833 375.842 76.375C373.342 74.625 370.134 73.75 366.217 73.75ZM440.59 105.25V96H494.34V105.25H440.59Z" fill="black"/>
<path d="M602.761 57.688L606.985 70.872C604.425 71.768 601.545 72.408 598.345 72.792C595.145 73.1333 591.476 73.304 587.337 73.304C591.476 75.096 594.612 77.3787 596.745 80.152C598.921 82.8827 600.009 86.36 600.009 90.584C600.009 94.9787 598.878 98.904 596.617 102.36C594.398 105.816 591.22 108.525 587.081 110.488C582.985 112.451 578.1 113.432 572.425 113.432C570.676 113.432 569.118 113.347 567.753 113.176C566.388 113.005 565.065 112.771 563.785 112.472C562.932 112.941 562.27 113.624 561.801 114.52C561.332 115.416 561.097 116.333 561.097 117.272C561.097 118.552 561.588 119.661 562.569 120.6C563.593 121.496 565.769 121.944 569.097 121.944H580.617C585.609 121.944 589.982 122.797 593.737 124.504C597.534 126.168 600.478 128.429 602.569 131.288C604.702 134.147 605.769 137.432 605.769 141.144C605.769 147.971 602.804 153.304 596.873 157.144C590.942 160.984 582.281 162.904 570.889 162.904C562.74 162.904 556.382 162.072 551.817 160.408C547.294 158.744 544.116 156.312 542.281 153.112C540.446 149.955 539.529 146.136 539.529 141.656H554.569C554.569 143.832 554.996 145.624 555.849 147.032C556.745 148.44 558.388 149.485 560.777 150.168C563.209 150.851 566.686 151.192 571.209 151.192C575.732 151.192 579.273 150.829 581.833 150.104C584.436 149.379 586.27 148.333 587.337 146.968C588.404 145.645 588.937 144.088 588.937 142.296C588.937 139.864 587.913 137.965 585.865 136.6C583.817 135.235 580.916 134.552 577.161 134.552H565.961C559.134 134.552 554.164 133.229 551.049 130.584C547.934 127.896 546.377 124.803 546.377 121.304C546.377 118.915 547.017 116.632 548.297 114.456C549.62 112.237 551.497 110.36 553.929 108.824C549.748 106.605 546.718 103.96 544.841 100.888C543.006 97.7733 542.089 94.0187 542.089 89.624C542.089 84.7173 543.326 80.4507 545.801 76.824C548.276 73.1973 551.71 70.3813 556.105 68.376C560.5 66.3707 565.556 65.368 571.273 65.368C576.521 65.4107 580.98 65.0907 584.649 64.408C588.361 63.7253 591.625 62.7867 594.441 61.592C597.3 60.3973 600.073 59.096 602.761 57.688ZM571.593 76.632C567.582 76.632 564.51 77.8053 562.377 80.152C560.286 82.4987 559.241 85.6133 559.241 89.496C559.241 93.5067 560.329 96.6853 562.505 99.032C564.681 101.379 567.732 102.552 571.657 102.552C575.54 102.552 578.484 101.421 580.489 99.16C582.537 96.856 583.561 93.5707 583.561 89.304C583.561 85.0373 582.537 81.8587 580.489 79.768C578.484 77.6773 575.518 76.632 571.593 76.632Z" fill="#004B79"/>
<path d="M31.6211 225L36.9019 200.015H39.7729L35.022 222.402H44.8145L44.2676 225H31.6211ZM53.7012 225.342C52.6872 225.342 51.7985 225.097 51.0352 224.607C50.2718 224.117 49.6794 223.394 49.2578 222.437C48.8363 221.479 48.6255 220.312 48.6255 218.933C48.6255 217.555 48.7679 216.227 49.0527 214.951C49.349 213.675 49.7648 212.49 50.3003 211.396C50.8358 210.303 51.4795 209.346 52.2314 208.525C52.9948 207.705 53.8493 207.067 54.7949 206.611C55.7406 206.156 56.7603 205.928 57.854 205.928C58.6971 205.928 59.4263 206.087 60.0415 206.406C60.6681 206.725 61.1865 207.147 61.5967 207.671C62.0182 208.184 62.3486 208.73 62.5879 209.312H62.7588L63.8525 206.27H66.0229L62.0581 225H59.7852L60.2979 221.377H60.1611C59.6484 222.061 59.0617 222.704 58.4009 223.308C57.7401 223.912 57.0166 224.402 56.2305 224.778C55.4443 225.154 54.6012 225.342 53.7012 225.342ZM54.624 222.983C55.5013 222.983 56.3672 222.664 57.2217 222.026C58.0876 221.377 58.8623 220.505 59.5459 219.412C60.2409 218.306 60.7707 217.065 61.1353 215.686C61.3175 215.014 61.4372 214.399 61.4941 213.84C61.5625 213.271 61.5967 212.741 61.5967 212.251C61.5967 211.077 61.2834 210.132 60.6567 209.414C60.0415 208.685 59.1984 208.32 58.1274 208.32C57.3641 208.32 56.6463 208.514 55.9741 208.901C55.3019 209.277 54.6924 209.807 54.1455 210.491C53.61 211.163 53.1486 211.949 52.7612 212.849C52.3739 213.738 52.0719 214.706 51.8555 215.754C51.6504 216.803 51.5479 217.879 51.5479 218.984C51.5479 220.295 51.8156 221.292 52.3511 221.975C52.8866 222.647 53.6442 222.983 54.624 222.983ZM72.1753 225.342C71.036 225.342 70.0334 225.228 69.1675 225C68.313 224.772 67.5667 224.487 66.9287 224.146V221.514C67.5326 221.878 68.2959 222.22 69.2188 222.539C70.153 222.858 71.11 223.018 72.0898 223.018C73.0583 223.018 73.8615 222.887 74.4995 222.625C75.1489 222.362 75.6331 222.004 75.9521 221.548C76.2826 221.081 76.4478 220.54 76.4478 219.924C76.4478 219.434 76.3395 219.013 76.123 218.66C75.918 218.295 75.5762 217.942 75.0977 217.6C74.6305 217.258 74.0039 216.865 73.2178 216.421C72.3405 215.931 71.5999 215.435 70.9961 214.934C70.3923 214.433 69.9308 213.886 69.6118 213.293C69.3042 212.69 69.1504 211.989 69.1504 211.191C69.1504 210.12 69.4124 209.192 69.9365 208.406C70.4606 207.62 71.1955 207.01 72.1411 206.577C73.0981 206.144 74.2147 205.928 75.4907 205.928C76.6187 205.928 77.6611 206.059 78.6182 206.321C79.5752 206.571 80.4012 206.862 81.0962 207.192L80.1733 209.465C79.5809 209.181 78.903 208.918 78.1396 208.679C77.3763 208.44 76.4933 208.32 75.4907 208.32C74.4198 208.32 73.5653 208.565 72.9272 209.055C72.3006 209.545 71.9873 210.206 71.9873 211.038C71.9873 211.471 72.0785 211.858 72.2607 212.2C72.4544 212.542 72.7848 212.883 73.252 213.225C73.7191 213.556 74.3571 213.943 75.166 214.387C75.9521 214.843 76.6585 215.31 77.2852 215.789C77.9232 216.256 78.4245 216.797 78.7891 217.412C79.165 218.016 79.353 218.762 79.353 219.651C79.353 220.87 79.0625 221.907 78.4814 222.761C77.9004 223.604 77.0687 224.248 75.9863 224.692C74.9154 225.125 73.645 225.342 72.1753 225.342ZM90.1709 233.374L95.896 206.27H98.2202L97.7588 209.91H97.8784C98.4139 209.203 99.0007 208.554 99.6387 207.961C100.288 207.358 100.994 206.873 101.758 206.509C102.533 206.144 103.376 205.962 104.287 205.962C105.312 205.962 106.207 206.207 106.97 206.697C107.734 207.175 108.326 207.893 108.748 208.85C109.181 209.796 109.397 210.975 109.397 212.388C109.397 213.732 109.26 215.042 108.987 216.318C108.725 217.583 108.337 218.762 107.825 219.856C107.312 220.938 106.68 221.895 105.928 222.727C105.187 223.547 104.338 224.191 103.381 224.658C102.424 225.114 101.37 225.342 100.22 225.342C99.3424 225.342 98.5848 225.188 97.9468 224.88C97.3201 224.561 96.7904 224.146 96.3574 223.633C95.9359 223.12 95.5998 222.568 95.3491 221.975H95.1953C95.1497 222.397 95.0757 222.949 94.9731 223.633C94.882 224.305 94.7852 224.869 94.6826 225.325L92.9736 233.374H90.1709ZM100.015 222.983C100.812 222.983 101.541 222.784 102.202 222.385C102.874 221.986 103.472 221.445 103.997 220.762C104.532 220.067 104.982 219.264 105.347 218.352C105.723 217.441 106.007 216.472 106.201 215.447C106.395 214.421 106.492 213.379 106.492 212.319C106.492 210.998 106.224 210.001 105.688 209.329C105.164 208.656 104.378 208.32 103.33 208.32C102.783 208.32 102.231 208.457 101.672 208.73C101.114 208.993 100.573 209.368 100.049 209.858C99.5247 210.337 99.0348 210.907 98.5791 211.567C98.1234 212.228 97.7246 212.957 97.3828 213.755C97.0524 214.552 96.7904 215.396 96.5967 216.284C96.403 217.173 96.3062 218.084 96.3062 219.019C96.3062 220.215 96.6081 221.178 97.2119 221.907C97.8271 222.625 98.7614 222.983 100.015 222.983ZM119.651 225.342C118.25 225.342 117.042 225.063 116.028 224.504C115.014 223.935 114.233 223.126 113.687 222.078C113.151 221.018 112.883 219.753 112.883 218.284C112.883 216.768 113.1 215.282 113.533 213.823C113.977 212.354 114.609 211.026 115.43 209.841C116.25 208.645 117.236 207.694 118.386 206.987C119.548 206.281 120.847 205.928 122.283 205.928C124.003 205.928 125.308 206.315 126.196 207.09C127.085 207.853 127.529 208.907 127.529 210.251C127.529 211.197 127.307 212.069 126.863 212.866C126.43 213.664 125.758 214.359 124.846 214.951C123.946 215.532 122.801 215.988 121.411 216.318C120.033 216.637 118.398 216.797 116.506 216.797H115.857C115.834 217.002 115.811 217.23 115.789 217.48C115.777 217.731 115.771 217.965 115.771 218.181C115.771 219.685 116.136 220.864 116.865 221.719C117.594 222.562 118.688 222.983 120.146 222.983C121.047 222.983 121.895 222.858 122.693 222.607C123.502 222.345 124.345 222.004 125.222 221.582V224.026C124.379 224.413 123.53 224.732 122.676 224.983C121.821 225.222 120.813 225.342 119.651 225.342ZM116.267 214.473H116.677C118.136 214.473 119.474 214.347 120.693 214.097C121.912 213.835 122.892 213.413 123.633 212.832C124.373 212.24 124.744 211.453 124.744 210.474C124.744 209.836 124.527 209.312 124.094 208.901C123.661 208.491 123 208.286 122.112 208.286C121.326 208.286 120.551 208.531 119.788 209.021C119.024 209.5 118.329 210.2 117.703 211.123C117.087 212.046 116.609 213.162 116.267 214.473ZM129.58 225L133.562 206.27H135.886L135.442 209.893H135.613C136.091 209.243 136.604 208.617 137.151 208.013C137.698 207.397 138.319 206.896 139.014 206.509C139.72 206.121 140.529 205.928 141.44 205.928C141.782 205.928 142.13 205.951 142.483 205.996C142.836 206.03 143.167 206.093 143.474 206.184L142.859 208.73C142.551 208.662 142.249 208.611 141.953 208.577C141.668 208.542 141.372 208.525 141.064 208.525C140.199 208.525 139.395 208.753 138.655 209.209C137.914 209.653 137.248 210.251 136.655 211.003C136.074 211.755 135.579 212.593 135.168 213.516C134.77 214.438 134.468 215.378 134.263 216.335L132.434 225H129.58ZM147.883 225.342C146.744 225.342 145.741 225.228 144.875 225C144.021 224.772 143.275 224.487 142.637 224.146V221.514C143.241 221.878 144.004 222.22 144.927 222.539C145.861 222.858 146.818 223.018 147.798 223.018C148.766 223.018 149.569 222.887 150.208 222.625C150.857 222.362 151.341 222.004 151.66 221.548C151.991 221.081 152.156 220.54 152.156 219.924C152.156 219.434 152.048 219.013 151.831 218.66C151.626 218.295 151.284 217.942 150.806 217.6C150.339 217.258 149.712 216.865 148.926 216.421C148.049 215.931 147.308 215.435 146.704 214.934C146.1 214.433 145.639 213.886 145.32 213.293C145.012 212.69 144.858 211.989 144.858 211.191C144.858 210.12 145.12 209.192 145.645 208.406C146.169 207.62 146.903 207.01 147.849 206.577C148.806 206.144 149.923 205.928 151.199 205.928C152.327 205.928 153.369 206.059 154.326 206.321C155.283 206.571 156.109 206.862 156.804 207.192L155.881 209.465C155.289 209.181 154.611 208.918 153.848 208.679C153.084 208.44 152.201 208.32 151.199 208.32C150.128 208.32 149.273 208.565 148.635 209.055C148.009 209.545 147.695 210.206 147.695 211.038C147.695 211.471 147.786 211.858 147.969 212.2C148.162 212.542 148.493 212.883 148.96 213.225C149.427 213.556 150.065 213.943 150.874 214.387C151.66 214.843 152.367 215.31 152.993 215.789C153.631 216.256 154.132 216.797 154.497 217.412C154.873 218.016 155.061 218.762 155.061 219.651C155.061 220.87 154.771 221.907 154.189 222.761C153.608 223.604 152.777 224.248 151.694 224.692C150.623 225.125 149.353 225.342 147.883 225.342ZM166.169 225.273C164.734 225.273 163.498 224.983 162.461 224.402C161.424 223.809 160.627 222.978 160.068 221.907C159.521 220.824 159.248 219.548 159.248 218.079C159.248 216.894 159.379 215.726 159.641 214.575C159.903 213.413 160.291 212.319 160.803 211.294C161.316 210.257 161.948 209.346 162.7 208.56C163.464 207.762 164.341 207.141 165.332 206.697C166.323 206.241 167.428 206.013 168.647 206.013C170.106 206.013 171.348 206.309 172.373 206.902C173.41 207.483 174.202 208.315 174.749 209.397C175.307 210.479 175.586 211.761 175.586 213.242C175.586 214.404 175.455 215.561 175.193 216.711C174.942 217.862 174.561 218.956 174.048 219.993C173.547 221.018 172.914 221.93 172.151 222.727C171.399 223.513 170.522 224.134 169.519 224.59C168.528 225.046 167.411 225.273 166.169 225.273ZM166.34 222.915C167.047 222.915 167.719 222.767 168.357 222.471C168.995 222.174 169.576 221.747 170.1 221.189C170.624 220.619 171.074 219.93 171.45 219.121C171.838 218.301 172.134 217.372 172.339 216.335C172.555 215.299 172.664 214.159 172.664 212.917C172.664 212.177 172.533 211.459 172.271 210.764C172.008 210.069 171.587 209.5 171.006 209.055C170.425 208.599 169.65 208.372 168.682 208.372C167.884 208.372 167.144 208.537 166.46 208.867C165.788 209.198 165.184 209.665 164.648 210.269C164.113 210.872 163.657 211.584 163.281 212.405C162.917 213.225 162.632 214.125 162.427 215.105C162.233 216.085 162.136 217.116 162.136 218.198C162.136 219.691 162.501 220.853 163.23 221.685C163.959 222.505 164.996 222.915 166.34 222.915ZM178.132 225L182.148 206.184H184.661L184.216 209.79H184.25C184.683 209.198 185.202 208.599 185.806 207.996C186.421 207.38 187.133 206.868 187.942 206.458C188.762 206.036 189.691 205.825 190.728 205.825C191.73 205.825 192.59 206.013 193.308 206.389C194.026 206.754 194.578 207.289 194.966 207.996C195.353 208.691 195.547 209.534 195.547 210.525C195.547 211.049 195.507 211.579 195.427 212.114C195.347 212.65 195.262 213.128 195.171 213.55L192.676 225H189.651L192.18 213.174C192.283 212.661 192.362 212.222 192.419 211.858C192.488 211.493 192.522 211.152 192.522 210.833C192.522 210.035 192.306 209.431 191.873 209.021C191.44 208.611 190.802 208.406 189.958 208.406C189.127 208.406 188.25 208.691 187.327 209.26C186.404 209.83 185.549 210.73 184.763 211.96C183.977 213.18 183.368 214.775 182.935 216.746L181.174 225H178.132ZM204.194 225.342C203.18 225.342 202.292 225.097 201.528 224.607C200.765 224.117 200.173 223.394 199.751 222.437C199.329 221.479 199.119 220.312 199.119 218.933C199.119 217.555 199.261 216.227 199.546 214.951C199.842 213.675 200.258 212.49 200.793 211.396C201.329 210.303 201.973 209.346 202.725 208.525C203.488 207.705 204.342 207.067 205.288 206.611C206.234 206.156 207.253 205.928 208.347 205.928C209.19 205.928 209.919 206.087 210.535 206.406C211.161 206.725 211.68 207.147 212.09 207.671C212.511 208.184 212.842 208.73 213.081 209.312H213.252L214.346 206.27H216.516L212.551 225H210.278L210.791 221.377H210.654C210.142 222.061 209.555 222.704 208.894 223.308C208.233 223.912 207.51 224.402 206.724 224.778C205.938 225.154 205.094 225.342 204.194 225.342ZM205.117 222.983C205.994 222.983 206.86 222.664 207.715 222.026C208.581 221.377 209.355 220.505 210.039 219.412C210.734 218.306 211.264 217.065 211.628 215.686C211.811 215.014 211.93 214.399 211.987 213.84C212.056 213.271 212.09 212.741 212.09 212.251C212.09 211.077 211.777 210.132 211.15 209.414C210.535 208.685 209.692 208.32 208.621 208.32C207.857 208.32 207.139 208.514 206.467 208.901C205.795 209.277 205.186 209.807 204.639 210.491C204.103 211.163 203.642 211.949 203.254 212.849C202.867 213.738 202.565 214.706 202.349 215.754C202.144 216.803 202.041 217.879 202.041 218.984C202.041 220.295 202.309 221.292 202.844 221.975C203.38 222.647 204.137 222.983 205.117 222.983ZM222.668 225.342C221.529 225.342 220.527 225.228 219.661 225C218.806 224.772 218.06 224.487 217.422 224.146V221.514C218.026 221.878 218.789 222.22 219.712 222.539C220.646 222.858 221.603 223.018 222.583 223.018C223.551 223.018 224.355 222.887 224.993 222.625C225.642 222.362 226.126 222.004 226.445 221.548C226.776 221.081 226.941 220.54 226.941 219.924C226.941 219.434 226.833 219.013 226.616 218.66C226.411 218.295 226.069 217.942 225.591 217.6C225.124 217.258 224.497 216.865 223.711 216.421C222.834 215.931 222.093 215.435 221.489 214.934C220.885 214.433 220.424 213.886 220.105 213.293C219.797 212.69 219.644 211.989 219.644 211.191C219.644 210.12 219.906 209.192 220.43 208.406C220.954 207.62 221.689 207.01 222.634 206.577C223.591 206.144 224.708 205.928 225.984 205.928C227.112 205.928 228.154 206.059 229.111 206.321C230.068 206.571 230.894 206.862 231.589 207.192L230.667 209.465C230.074 209.181 229.396 208.918 228.633 208.679C227.869 208.44 226.986 208.32 225.984 208.32C224.913 208.32 224.058 208.565 223.42 209.055C222.794 209.545 222.48 210.206 222.48 211.038C222.48 211.471 222.572 211.858 222.754 212.2C222.948 212.542 223.278 212.883 223.745 213.225C224.212 213.556 224.85 213.943 225.659 214.387C226.445 214.843 227.152 215.31 227.778 215.789C228.416 216.256 228.918 216.797 229.282 217.412C229.658 218.016 229.846 218.762 229.846 219.651C229.846 220.87 229.556 221.907 228.975 222.761C228.394 223.604 227.562 224.248 226.479 224.692C225.409 225.125 224.138 225.342 222.668 225.342ZM248.184 225.342C247.17 225.342 246.281 225.097 245.518 224.607C244.754 224.117 244.162 223.394 243.74 222.437C243.319 221.479 243.108 220.312 243.108 218.933C243.108 217.555 243.25 216.227 243.535 214.951C243.831 213.675 244.247 212.49 244.783 211.396C245.318 210.303 245.962 209.346 246.714 208.525C247.477 207.705 248.332 207.067 249.277 206.611C250.223 206.156 251.243 205.928 252.336 205.928C253.18 205.928 253.909 206.087 254.524 206.406C255.151 206.725 255.669 207.147 256.079 207.671C256.501 208.184 256.831 208.73 257.07 209.312H257.241L258.335 206.27H260.505L256.541 225H254.268L254.78 221.377H254.644C254.131 222.061 253.544 222.704 252.883 223.308C252.222 223.912 251.499 224.402 250.713 224.778C249.927 225.154 249.084 225.342 248.184 225.342ZM249.106 222.983C249.984 222.983 250.85 222.664 251.704 222.026C252.57 221.377 253.345 220.505 254.028 219.412C254.723 218.306 255.253 217.065 255.618 215.686C255.8 215.014 255.92 214.399 255.977 213.84C256.045 213.271 256.079 212.741 256.079 212.251C256.079 211.077 255.766 210.132 255.139 209.414C254.524 208.685 253.681 208.32 252.61 208.32C251.847 208.32 251.129 208.514 250.457 208.901C249.784 209.277 249.175 209.807 248.628 210.491C248.092 211.163 247.631 211.949 247.244 212.849C246.856 213.738 246.554 214.706 246.338 215.754C246.133 216.803 246.03 217.879 246.03 218.984C246.03 220.295 246.298 221.292 246.833 221.975C247.369 222.647 248.127 222.983 249.106 222.983ZM262.163 225L267.837 198.408H270.674L265.017 225H262.163ZM287.798 225.342C286.408 225.342 285.189 225.08 284.141 224.556C283.104 224.02 282.295 223.234 281.714 222.197C281.144 221.16 280.859 219.873 280.859 218.335C280.859 217.002 281.002 215.72 281.287 214.49C281.583 213.259 282.01 212.126 282.568 211.089C283.127 210.052 283.805 209.146 284.602 208.372C285.4 207.597 286.305 206.999 287.319 206.577C288.345 206.144 289.461 205.928 290.669 205.928C291.478 205.928 292.281 206.007 293.079 206.167C293.888 206.315 294.617 206.532 295.266 206.816L294.463 209.209C293.984 208.981 293.42 208.776 292.771 208.594C292.122 208.411 291.427 208.32 290.686 208.32C289.649 208.32 288.704 208.582 287.849 209.106C287.006 209.631 286.277 210.36 285.662 211.294C285.058 212.217 284.591 213.276 284.26 214.473C283.93 215.669 283.765 216.945 283.765 218.301C283.765 219.269 283.936 220.107 284.277 220.813C284.619 221.508 285.109 222.043 285.747 222.419C286.396 222.795 287.171 222.983 288.071 222.983C288.903 222.983 289.683 222.869 290.413 222.642C291.153 222.414 291.877 222.14 292.583 221.821V224.248C291.956 224.567 291.239 224.829 290.43 225.034C289.632 225.239 288.755 225.342 287.798 225.342ZM303.503 225.342C302.102 225.342 300.894 225.063 299.88 224.504C298.866 223.935 298.086 223.126 297.539 222.078C297.004 221.018 296.736 219.753 296.736 218.284C296.736 216.768 296.952 215.282 297.385 213.823C297.83 212.354 298.462 211.026 299.282 209.841C300.103 208.645 301.088 207.694 302.239 206.987C303.401 206.281 304.7 205.928 306.135 205.928C307.856 205.928 309.16 206.315 310.049 207.09C310.938 207.853 311.382 208.907 311.382 210.251C311.382 211.197 311.16 212.069 310.715 212.866C310.282 213.664 309.61 214.359 308.699 214.951C307.799 215.532 306.654 215.988 305.264 216.318C303.885 216.637 302.25 216.797 300.359 216.797H299.709C299.687 217.002 299.664 217.23 299.641 217.48C299.63 217.731 299.624 217.965 299.624 218.181C299.624 219.685 299.989 220.864 300.718 221.719C301.447 222.562 302.541 222.983 303.999 222.983C304.899 222.983 305.748 222.858 306.545 222.607C307.354 222.345 308.197 222.004 309.075 221.582V224.026C308.232 224.413 307.383 224.732 306.528 224.983C305.674 225.222 304.666 225.342 303.503 225.342ZM300.12 214.473H300.53C301.988 214.473 303.327 214.347 304.546 214.097C305.765 213.835 306.745 213.413 307.485 212.832C308.226 212.24 308.596 211.453 308.596 210.474C308.596 209.836 308.38 209.312 307.947 208.901C307.514 208.491 306.853 208.286 305.964 208.286C305.178 208.286 304.403 208.531 303.64 209.021C302.877 209.5 302.182 210.2 301.555 211.123C300.94 212.046 300.461 213.162 300.12 214.473ZM313.313 225L317.329 206.184H319.841L319.397 209.79H319.431C319.864 209.198 320.382 208.599 320.986 207.996C321.602 207.38 322.314 206.868 323.123 206.458C323.943 206.036 324.871 205.825 325.908 205.825C326.911 205.825 327.771 206.013 328.489 206.389C329.207 206.754 329.759 207.289 330.146 207.996C330.534 208.691 330.728 209.534 330.728 210.525C330.728 211.049 330.688 211.579 330.608 212.114C330.528 212.65 330.443 213.128 330.352 213.55L327.856 225H324.832L327.361 213.174C327.463 212.661 327.543 212.222 327.6 211.858C327.668 211.493 327.703 211.152 327.703 210.833C327.703 210.035 327.486 209.431 327.053 209.021C326.62 208.611 325.982 208.406 325.139 208.406C324.307 208.406 323.43 208.691 322.507 209.26C321.584 209.83 320.73 210.73 319.944 211.96C319.158 213.18 318.548 214.775 318.115 216.746L316.355 225H313.313ZM338.931 225.342C337.689 225.342 336.652 225.046 335.82 224.453C335 223.849 334.59 222.818 334.59 221.36C334.59 221.007 334.613 220.625 334.658 220.215C334.704 219.793 334.778 219.36 334.88 218.916L337.085 208.44H334.197L334.47 207.124L337.581 205.928L339.631 201.963H341.323L340.383 206.27H345.203L344.758 208.44H339.956L337.734 218.95C337.655 219.269 337.581 219.611 337.512 219.976C337.455 220.34 337.427 220.688 337.427 221.018C337.427 221.588 337.575 222.066 337.871 222.454C338.167 222.83 338.663 223.018 339.358 223.018C339.791 223.018 340.201 222.978 340.588 222.898C340.987 222.818 341.409 222.704 341.853 222.556V224.744C341.568 224.88 341.135 225.011 340.554 225.137C339.985 225.273 339.443 225.342 338.931 225.342ZM345.151 225L349.133 206.27H351.458L351.013 209.893H351.184C351.663 209.243 352.175 208.617 352.722 208.013C353.269 207.397 353.89 206.896 354.585 206.509C355.291 206.121 356.1 205.928 357.012 205.928C357.354 205.928 357.701 205.951 358.054 205.996C358.407 206.03 358.738 206.093 359.045 206.184L358.43 208.73C358.123 208.662 357.821 208.611 357.524 208.577C357.24 208.542 356.943 208.525 356.636 208.525C355.77 208.525 354.967 208.753 354.226 209.209C353.486 209.653 352.819 210.251 352.227 211.003C351.646 211.755 351.15 212.593 350.74 213.516C350.341 214.438 350.039 215.378 349.834 216.335L348.005 225H345.151ZM366.633 225.273C365.198 225.273 363.962 224.983 362.925 224.402C361.888 223.809 361.09 222.978 360.532 221.907C359.985 220.824 359.712 219.548 359.712 218.079C359.712 216.894 359.843 215.726 360.105 214.575C360.367 213.413 360.754 212.319 361.267 211.294C361.78 210.257 362.412 209.346 363.164 208.56C363.927 207.762 364.805 207.141 365.796 206.697C366.787 206.241 367.892 206.013 369.111 206.013C370.57 206.013 371.812 206.309 372.837 206.902C373.874 207.483 374.666 208.315 375.212 209.397C375.771 210.479 376.05 211.761 376.05 213.242C376.05 214.404 375.919 215.561 375.657 216.711C375.406 217.862 375.024 218.956 374.512 219.993C374.01 221.018 373.378 221.93 372.615 222.727C371.863 223.513 370.986 224.134 369.983 224.59C368.992 225.046 367.875 225.273 366.633 225.273ZM366.804 222.915C367.511 222.915 368.183 222.767 368.821 222.471C369.459 222.174 370.04 221.747 370.564 221.189C371.088 220.619 371.538 219.93 371.914 219.121C372.301 218.301 372.598 217.372 372.803 216.335C373.019 215.299 373.127 214.159 373.127 212.917C373.127 212.177 372.996 211.459 372.734 210.764C372.472 210.069 372.051 209.5 371.47 209.055C370.889 208.599 370.114 208.372 369.146 208.372C368.348 208.372 367.607 208.537 366.924 208.867C366.252 209.198 365.648 209.665 365.112 210.269C364.577 210.872 364.121 211.584 363.745 212.405C363.381 213.225 363.096 214.125 362.891 215.105C362.697 216.085 362.6 217.116 362.6 218.198C362.6 219.691 362.965 220.853 363.694 221.685C364.423 222.505 365.46 222.915 366.804 222.915ZM393.601 225.342C392.576 225.342 391.681 225.103 390.918 224.624C390.155 224.146 389.562 223.433 389.141 222.488C388.719 221.531 388.508 220.346 388.508 218.933C388.508 217.589 388.645 216.284 388.918 215.02C389.192 213.743 389.585 212.559 390.098 211.465C390.622 210.371 391.26 209.414 392.012 208.594C392.764 207.762 393.618 207.118 394.575 206.663C395.544 206.195 396.603 205.962 397.754 205.962C398.631 205.962 399.383 206.121 400.01 206.44C400.636 206.759 401.155 207.175 401.565 207.688C401.986 208.189 402.317 208.73 402.556 209.312H402.727C402.795 208.787 402.864 208.28 402.932 207.791C403 207.289 403.08 206.782 403.171 206.27C403.274 205.757 403.388 205.227 403.513 204.68L404.829 198.408H407.649L402.009 225H399.668L400.129 221.377H400.01C399.463 222.083 398.865 222.738 398.215 223.342C397.577 223.946 396.877 224.43 396.113 224.795C395.35 225.16 394.513 225.342 393.601 225.342ZM394.558 222.983C395.094 222.983 395.635 222.852 396.182 222.59C396.74 222.328 397.281 221.958 397.805 221.479C398.329 220.99 398.819 220.414 399.275 219.753C399.731 219.093 400.129 218.363 400.471 217.566C400.824 216.768 401.098 215.925 401.292 215.037C401.485 214.148 401.582 213.231 401.582 212.285C401.582 211.077 401.292 210.115 400.71 209.397C400.129 208.679 399.201 208.32 397.925 208.32C397.139 208.32 396.41 208.52 395.737 208.918C395.076 209.317 394.478 209.864 393.943 210.559C393.407 211.254 392.952 212.057 392.576 212.969C392.211 213.869 391.926 214.837 391.721 215.874C391.528 216.899 391.431 217.936 391.431 218.984C391.431 220.295 391.693 221.292 392.217 221.975C392.741 222.647 393.521 222.983 394.558 222.983ZM415.544 225.342C414.143 225.342 412.935 225.063 411.921 224.504C410.907 223.935 410.127 223.126 409.58 222.078C409.045 221.018 408.777 219.753 408.777 218.284C408.777 216.768 408.993 215.282 409.426 213.823C409.871 212.354 410.503 211.026 411.323 209.841C412.144 208.645 413.129 207.694 414.28 206.987C415.442 206.281 416.741 205.928 418.176 205.928C419.897 205.928 421.201 206.315 422.09 207.09C422.979 207.853 423.423 208.907 423.423 210.251C423.423 211.197 423.201 212.069 422.756 212.866C422.323 213.664 421.651 214.359 420.74 214.951C419.84 215.532 418.695 215.988 417.305 216.318C415.926 216.637 414.291 216.797 412.4 216.797H411.75C411.728 217.002 411.705 217.23 411.682 217.48C411.671 217.731 411.665 217.965 411.665 218.181C411.665 219.685 412.03 220.864 412.759 221.719C413.488 222.562 414.582 222.983 416.04 222.983C416.94 222.983 417.789 222.858 418.586 222.607C419.395 222.345 420.238 222.004 421.116 221.582V224.026C420.273 224.413 419.424 224.732 418.569 224.983C417.715 225.222 416.707 225.342 415.544 225.342ZM412.161 214.473H412.571C414.029 214.473 415.368 214.347 416.587 214.097C417.806 213.835 418.786 213.413 419.526 212.832C420.267 212.24 420.637 211.453 420.637 210.474C420.637 209.836 420.421 209.312 419.988 208.901C419.555 208.491 418.894 208.286 418.005 208.286C417.219 208.286 416.444 208.531 415.681 209.021C414.918 209.5 414.223 210.2 413.596 211.123C412.981 212.046 412.502 213.162 412.161 214.473ZM434.531 225L440.205 198.408H443.042L437.385 225H434.531ZM449.194 225.342C448.18 225.342 447.292 225.097 446.528 224.607C445.765 224.117 445.173 223.394 444.751 222.437C444.329 221.479 444.119 220.312 444.119 218.933C444.119 217.555 444.261 216.227 444.546 214.951C444.842 213.675 445.258 212.49 445.793 211.396C446.329 210.303 446.973 209.346 447.725 208.525C448.488 207.705 449.342 207.067 450.288 206.611C451.234 206.156 452.253 205.928 453.347 205.928C454.19 205.928 454.919 206.087 455.535 206.406C456.161 206.725 456.68 207.147 457.09 207.671C457.511 208.184 457.842 208.73 458.081 209.312H458.252L459.346 206.27H461.516L457.551 225H455.278L455.791 221.377H455.654C455.142 222.061 454.555 222.704 453.894 223.308C453.233 223.912 452.51 224.402 451.724 224.778C450.938 225.154 450.094 225.342 449.194 225.342ZM450.117 222.983C450.994 222.983 451.86 222.664 452.715 222.026C453.581 221.377 454.355 220.505 455.039 219.412C455.734 218.306 456.264 217.065 456.628 215.686C456.811 215.014 456.93 214.399 456.987 213.84C457.056 213.271 457.09 212.741 457.09 212.251C457.09 211.077 456.777 210.132 456.15 209.414C455.535 208.685 454.692 208.32 453.621 208.32C452.857 208.32 452.139 208.514 451.467 208.901C450.795 209.277 450.186 209.807 449.639 210.491C449.103 211.163 448.642 211.949 448.254 212.849C447.867 213.738 447.565 214.706 447.349 215.754C447.144 216.803 447.041 217.879 447.041 218.984C447.041 220.295 447.309 221.292 447.844 221.975C448.38 222.647 449.137 222.983 450.117 222.983ZM478.076 225.342C477.062 225.342 476.174 225.097 475.41 224.607C474.647 224.117 474.054 223.394 473.633 222.437C473.211 221.479 473 220.312 473 218.933C473 217.555 473.143 216.227 473.428 214.951C473.724 213.675 474.14 212.49 474.675 211.396C475.211 210.303 475.854 209.346 476.606 208.525C477.37 207.705 478.224 207.067 479.17 206.611C480.116 206.156 481.135 205.928 482.229 205.928C483.072 205.928 483.801 206.087 484.417 206.406C485.043 206.725 485.562 207.147 485.972 207.671C486.393 208.184 486.724 208.73 486.963 209.312H487.134L488.228 206.27H490.398L486.433 225H484.16L484.673 221.377H484.536C484.023 222.061 483.437 222.704 482.776 223.308C482.115 223.912 481.392 224.402 480.605 224.778C479.819 225.154 478.976 225.342 478.076 225.342ZM478.999 222.983C479.876 222.983 480.742 222.664 481.597 222.026C482.463 221.377 483.237 220.505 483.921 219.412C484.616 218.306 485.146 217.065 485.51 215.686C485.693 215.014 485.812 214.399 485.869 213.84C485.938 213.271 485.972 212.741 485.972 212.251C485.972 211.077 485.658 210.132 485.032 209.414C484.417 208.685 483.573 208.32 482.502 208.32C481.739 208.32 481.021 208.514 480.349 208.901C479.677 209.277 479.067 209.807 478.521 210.491C477.985 211.163 477.524 211.949 477.136 212.849C476.749 213.738 476.447 214.706 476.23 215.754C476.025 216.803 475.923 217.879 475.923 218.984C475.923 220.295 476.191 221.292 476.726 221.975C477.262 222.647 478.019 222.983 478.999 222.983ZM497.422 225.342C496.18 225.342 495.143 225.046 494.312 224.453C493.491 223.849 493.081 222.818 493.081 221.36C493.081 221.007 493.104 220.625 493.149 220.215C493.195 219.793 493.269 219.36 493.372 218.916L495.576 208.44H492.688L492.961 207.124L496.072 205.928L498.123 201.963H499.814L498.875 206.27H503.694L503.25 208.44H498.447L496.226 218.95C496.146 219.269 496.072 219.611 496.003 219.976C495.946 220.34 495.918 220.688 495.918 221.018C495.918 221.588 496.066 222.066 496.362 222.454C496.659 222.83 497.154 223.018 497.849 223.018C498.282 223.018 498.692 222.978 499.08 222.898C499.478 222.818 499.9 222.704 500.344 222.556V224.744C500.059 224.88 499.626 225.011 499.045 225.137C498.476 225.273 497.935 225.342 497.422 225.342ZM511.145 225.342C509.744 225.342 508.536 225.063 507.522 224.504C506.508 223.935 505.728 223.126 505.181 222.078C504.645 221.018 504.377 219.753 504.377 218.284C504.377 216.768 504.594 215.282 505.027 213.823C505.471 212.354 506.104 211.026 506.924 209.841C507.744 208.645 508.73 207.694 509.88 206.987C511.042 206.281 512.341 205.928 513.777 205.928C515.497 205.928 516.802 206.315 517.69 207.09C518.579 207.853 519.023 208.907 519.023 210.251C519.023 211.197 518.801 212.069 518.357 212.866C517.924 213.664 517.252 214.359 516.34 214.951C515.44 215.532 514.295 215.988 512.905 216.318C511.527 216.637 509.892 216.797 508 216.797H507.351C507.328 217.002 507.306 217.23 507.283 217.48C507.271 217.731 507.266 217.965 507.266 218.181C507.266 219.685 507.63 220.864 508.359 221.719C509.089 222.562 510.182 222.983 511.641 222.983C512.541 222.983 513.389 222.858 514.187 222.607C514.996 222.345 515.839 222.004 516.716 221.582V224.026C515.873 224.413 515.024 224.732 514.17 224.983C513.315 225.222 512.307 225.342 511.145 225.342ZM507.761 214.473H508.171C509.63 214.473 510.968 214.347 512.188 214.097C513.407 213.835 514.386 213.413 515.127 212.832C515.868 212.24 516.238 211.453 516.238 210.474C516.238 209.836 516.021 209.312 515.588 208.901C515.155 208.491 514.495 208.286 513.606 208.286C512.82 208.286 512.045 208.531 511.282 209.021C510.518 209.5 509.823 210.2 509.197 211.123C508.582 212.046 508.103 213.162 507.761 214.473ZM520.955 225L524.971 206.184H527.483L527.039 209.79H527.073C527.506 209.198 528.024 208.599 528.628 207.996C529.243 207.38 529.955 206.868 530.764 206.458C531.584 206.036 532.513 205.825 533.55 205.825C534.552 205.825 535.413 206.013 536.13 206.389C536.848 206.754 537.401 207.289 537.788 207.996C538.175 208.691 538.369 209.534 538.369 210.525C538.369 211.049 538.329 211.579 538.25 212.114C538.17 212.65 538.084 213.128 537.993 213.55L535.498 225H532.473L535.002 213.174C535.105 212.661 535.185 212.222 535.242 211.858C535.31 211.493 535.344 211.152 535.344 210.833C535.344 210.035 535.128 209.431 534.695 209.021C534.262 208.611 533.624 208.406 532.781 208.406C531.949 208.406 531.072 208.691 530.149 209.26C529.226 209.83 528.372 210.73 527.585 211.96C526.799 213.18 526.19 214.775 525.757 216.746L523.997 225H520.955ZM548.896 225.342C547.507 225.342 546.287 225.08 545.239 224.556C544.202 224.02 543.394 223.234 542.812 222.197C542.243 221.16 541.958 219.873 541.958 218.335C541.958 217.002 542.1 215.72 542.385 214.49C542.681 213.259 543.109 212.126 543.667 211.089C544.225 210.052 544.903 209.146 545.701 208.372C546.498 207.597 547.404 206.999 548.418 206.577C549.443 206.144 550.56 205.928 551.768 205.928C552.576 205.928 553.38 206.007 554.177 206.167C554.986 206.315 555.715 206.532 556.365 206.816L555.562 209.209C555.083 208.981 554.519 208.776 553.87 208.594C553.22 208.411 552.525 208.32 551.785 208.32C550.748 208.32 549.802 208.582 548.948 209.106C548.105 209.631 547.375 210.36 546.76 211.294C546.156 212.217 545.689 213.276 545.359 214.473C545.028 215.669 544.863 216.945 544.863 218.301C544.863 219.269 545.034 220.107 545.376 220.813C545.718 221.508 546.208 222.043 546.846 222.419C547.495 222.795 548.27 222.983 549.17 222.983C550.002 222.983 550.782 222.869 551.511 222.642C552.252 222.414 552.975 222.14 553.682 221.821V224.248C553.055 224.567 552.337 224.829 551.528 225.034C550.731 225.239 549.854 225.342 548.896 225.342ZM557.1 225L561.082 206.27H563.936L559.954 225H557.1ZM563.474 202.988C563.018 202.988 562.637 202.857 562.329 202.595C562.033 202.322 561.885 201.94 561.885 201.45C561.885 201.074 561.959 200.721 562.107 200.391C562.266 200.06 562.489 199.798 562.773 199.604C563.07 199.399 563.429 199.297 563.85 199.297C564.351 199.297 564.727 199.428 564.978 199.69C565.229 199.952 565.354 200.317 565.354 200.784C565.354 201.456 565.16 201.991 564.773 202.39C564.386 202.789 563.953 202.988 563.474 202.988ZM573.591 225.273C572.156 225.273 570.92 224.983 569.883 224.402C568.846 223.809 568.049 222.978 567.49 221.907C566.943 220.824 566.67 219.548 566.67 218.079C566.67 216.894 566.801 215.726 567.063 214.575C567.325 213.413 567.712 212.319 568.225 211.294C568.738 210.257 569.37 209.346 570.122 208.56C570.885 207.762 571.763 207.141 572.754 206.697C573.745 206.241 574.85 206.013 576.069 206.013C577.528 206.013 578.77 206.309 579.795 206.902C580.832 207.483 581.624 208.315 582.17 209.397C582.729 210.479 583.008 211.761 583.008 213.242C583.008 214.404 582.877 215.561 582.615 216.711C582.364 217.862 581.982 218.956 581.47 219.993C580.968 221.018 580.336 221.93 579.573 222.727C578.821 223.513 577.944 224.134 576.941 224.59C575.95 225.046 574.833 225.273 573.591 225.273ZM573.762 222.915C574.469 222.915 575.141 222.767 575.779 222.471C576.417 222.174 576.998 221.747 577.522 221.189C578.046 220.619 578.496 219.93 578.872 219.121C579.259 218.301 579.556 217.372 579.761 216.335C579.977 215.299 580.085 214.159 580.085 212.917C580.085 212.177 579.954 211.459 579.692 210.764C579.43 210.069 579.009 209.5 578.428 209.055C577.847 208.599 577.072 208.372 576.104 208.372C575.306 208.372 574.565 208.537 573.882 208.867C573.21 209.198 572.606 209.665 572.07 210.269C571.535 210.872 571.079 211.584 570.703 212.405C570.339 213.225 570.054 214.125 569.849 215.105C569.655 216.085 569.558 217.116 569.558 218.198C569.558 219.691 569.923 220.853 570.652 221.685C571.381 222.505 572.418 222.915 573.762 222.915ZM575.01 203.792V203.364C575.431 202.909 575.887 202.379 576.377 201.775C576.867 201.171 577.345 200.556 577.812 199.929C578.291 199.291 578.695 198.71 579.026 198.186H582.256V198.528C582.005 198.847 581.663 199.24 581.23 199.707C580.809 200.163 580.336 200.647 579.812 201.16C579.299 201.661 578.781 202.145 578.257 202.612C577.733 203.068 577.243 203.461 576.787 203.792H575.01ZM585.554 225L589.57 206.184H592.083L591.638 209.79H591.672C592.105 209.198 592.624 208.599 593.228 207.996C593.843 207.38 594.555 206.868 595.364 206.458C596.184 206.036 597.113 205.825 598.149 205.825C599.152 205.825 600.012 206.013 600.73 206.389C601.448 206.754 602 207.289 602.388 207.996C602.775 208.691 602.969 209.534 602.969 210.525C602.969 211.049 602.929 211.579 602.849 212.114C602.769 212.65 602.684 213.128 602.593 213.55L600.098 225H597.073L599.602 213.174C599.705 212.661 599.784 212.222 599.841 211.858C599.91 211.493 599.944 211.152 599.944 210.833C599.944 210.035 599.727 209.431 599.294 209.021C598.861 208.611 598.223 208.406 597.38 208.406C596.549 208.406 595.671 208.691 594.749 209.26C593.826 209.83 592.971 210.73 592.185 211.96C591.399 213.18 590.789 214.775 590.356 216.746L588.596 225H585.554Z" fill="black"/>
</svg>
