<?xml version="1.0" encoding="UTF-8"?>
<svg xmlns="http://www.w3.org/2000/svg" viewBox="0 0 85.04 17.39">
  <defs>
    <clipPath id="a">
      <path d="M81 6h4.04v6H81Zm0 0"/>
    </clipPath>
    <clipPath id="b">
      <path d="M0 0h18v17.39H0Zm0 0"/>
    </clipPath>
  </defs>
  <path d="M23.734 4.652v.54c-.343-.45-.742-.653-1.25-.653-1.3 0-2.191 1.461-2.191 3.578 0 1.512.48 3.567 2.258 3.567.82 0 1.754-.551 2.062-2.422l-.824-.653c-.152 1.145-.582 1.809-1.156 1.809-.695 0-1.172-.93-1.172-2.281 0-1.422.488-2.36 1.238-2.36.27 0 .422.082.715.457.117.157.246.543.32.86h.707V4.652h-.707m3.512 5.828h-.61v-.51c0-.98.22-1.82 1.028-1.82h.121V6.687h-.144c-.52 0-.914.457-1.098 1.296h-.012V6.758H25.09V7.87h.527v2.61h-.582v1.113h2.211V10.48m4.93 0h-.485V6.758h-1.28V7.87h.265v2.18c-.2.222-.38.347-.54.347-.23 0-.304-.156-.304-.625V6.758h-1.477V7.87h.461v2.293c0 .93.364 1.5.961 1.5.301 0 .59-.152.899-.48v.41h1.5V10.48m.539 1.114h3.043V9.793h-.656v.82h-1.184l1.84-2.855v-1h-2.89v1.726h.683v-.726h1.011l-1.847 2.855v.98m7.094-4.159V5.828h.55c.407 0 .512.5.512.785 0 .371-.14.82-.625.82Zm2.687 2.984h-.539l-.676-2.098c.485-.367.719-.93.719-1.726 0-1.055-.441-1.942-1.254-1.942h-2.594v1.176h.57v4.59h-.57v1.176h2.18v-1.176h-.523V8.547h.48l.938 3.047h1.27v-1.176m2.827-1.246c0 .848-.246 1.336-.672 1.336-.418 0-.668-.488-.668-1.309 0-.867.235-1.36.668-1.36.426 0 .672.493.672 1.333Zm1.11 0c0-1.629-.797-2.527-1.782-2.527-.918 0-1.777.828-1.777 2.527 0 1.605.773 2.535 1.777 2.535 1.059 0 1.782-1.012 1.782-2.535m1.484-4.632c-.305 0-.543.366-.543.839 0 .469.238.848.543.848.305 0 .55-.38.55-.848 0-.473-.245-.84-.55-.84Zm-.961 3.331h.484v3.856c0 .601-.187.734-.546.734h-.239v1.25c.121.008.211.02.367.02 1.016 0 1.434-.543 1.434-1.985V6.758h-1.5V7.87m4.535 1.935v.398c-.285.367-.457.5-.672.5-.25 0-.445-.273-.445-.644 0-.348.207-.602.496-.602.164 0 .356.102.621.348Zm1.64.675h-.546V8.496c0-1.289-.477-1.851-1.586-1.851-.852 0-1.367.359-1.64 1.144l.874.215c.192-.266.364-.379.614-.379.386 0 .644.348.644.852v.265c-.273-.133-.457-.215-.765-.215-.809 0-1.387.684-1.387 1.625 0 .868.527 1.512 1.238 1.512.328 0 .598-.133.914-.45v.38h1.64V10.48m2.087 1.114h3.664V9.387h-.793v1.031h-1.293v-1.82h1.043V7.422h-1.043V5.828h1.293v1.024h.793v-2.2h-3.664v1.176h.492v4.59h-.492v1.176m4.391 0h.73v-.246c.148.214.347.336.8.336.81 0 1.235-.684 1.235-1.625 0-2.004-2.047-1.36-2.047-2.036 0-.21.164-.367.434-.367.394 0 .625.164.683.504h.715V6.758h-.715v.164a1.45 1.45 0 0 0-.793-.234c-.675 0-1.164.59-1.164 1.417 0 .36.102.676.235.883.636.98 1.828.508 1.828 1.215 0 .285-.207.469-.512.469-.207 0-.371-.059-.5-.203a.785.785 0 0 1-.2-.543h-.73v1.668M65.59 9.2c0 .82-.227 1.308-.606 1.308s-.617-.5-.617-1.285c0-.797.219-1.27.606-1.27.382 0 .617.473.617 1.246Zm-.617 3.445h-.598v-1.543c.285.43.55.605.895.605.793 0 1.351-1.035 1.351-2.508 0-1.43-.578-2.511-1.336-2.511-.355 0-.633.203-.91.683v-.613h-1.55V7.87h.53v4.774h-.53v1.117h2.148v-1.117m4.16-2.839v.398c-.27.367-.426.5-.625.5-.235 0-.414-.273-.414-.644 0-.348.191-.602.46-.602.153 0 .333.102.579.348Zm1.52.675h-.505V8.496c0-1.289-.445-1.851-1.476-1.851-.79 0-1.27.359-1.52 1.144l.809.215c.18-.266.34-.379.57-.379.364 0 .602.348.602.852v.265c-.254-.133-.426-.215-.715-.215-.75 0-1.285.684-1.285 1.625 0 .868.488 1.512 1.148 1.512.305 0 .559-.133.852-.45v.38h1.52V10.48m.589-2.609h.485v2.61h-.485v1.113h1.918V10.48h-.418V8.3c.188-.202.38-.316.555-.316.183 0 .293.153.293.543v3.067h1.472V10.48h-.457V8.332c0-1.297-.539-1.645-.957-1.645-.32 0-.578.153-.906.52v-.45h-1.5Zm2.645-3.281c-.012.328-.133.562-.285.562-.266 0-.653-.582-1.036-.582-.226 0-.421.164-.546.45-.133.277-.207.675-.207 1.144h.484c.008-.348.101-.543.262-.543.246 0 .703.574 1.035.574.426 0 .777-.656.758-1.605h-.465m3.793 4.582c0 .848-.223 1.336-.625 1.336-.383 0-.618-.488-.618-1.309 0-.867.22-1.36.618-1.36.402 0 .625.493.625 1.333Zm1.03 0c0-1.629-.737-2.527-1.655-2.527-.848 0-1.649.828-1.649 2.527 0 1.605.719 2.535 1.649 2.535.984 0 1.656-1.012 1.656-2.535m.426 2.422h1.953V10.48h-.453V4.652h-1.5v1.114h.484v4.714h-.484v1.114" style="stroke:none;fill-rule:evenodd;fill:#231f20;fill-opacity:1"/>
  <g clip-path="url(#a)">
    <path d="M83.52 9.805v.398c-.266.367-.426.5-.625.5-.235 0-.415-.273-.415-.644 0-.348.192-.602.461-.602.153 0 .332.102.579.348Zm1.52.675h-.505V8.496c0-1.289-.445-1.851-1.476-1.851-.79 0-1.27.359-1.52 1.144l.809.215c.18-.266.34-.379.57-.379.363 0 .602.348.602.852v.265c-.254-.133-.426-.215-.715-.215-.75 0-1.285.684-1.285 1.625 0 .868.492 1.512 1.148 1.512.305 0 .559-.133.852-.45v.38h1.52V10.48" style="stroke:none;fill-rule:evenodd;fill:#231f20;fill-opacity:1"/>
  </g>
  <g clip-path="url(#b)">
    <path d="M5.8-.004h5.798v5.797h5.797v5.8h-5.797v5.798H5.8v-5.797H0V5.793h5.8V-.004" style="stroke:none;fill-rule:evenodd;fill:#eb322b;fill-opacity:1"/>
  </g>
</svg>
